<svg xmlns="http://www.w3.org/2000/svg" version="1.1" xmlns:xlink="http://www.w3.org/1999/xlink"
    xmlns:svgjs="http://svgjs.dev/svgjs" width="2000" height="1500" viewBox="0 0 2000 1500">
    <rect width="2000" height="1500" fill="#ffffff"></rect>
    <g transform="matrix(0.75,0,0,0.75,249.090909090909,-85.25979053876955)">
        <svg viewBox="0 0 396 359" data-background-color="#ffffff"
            preserveAspectRatio="xMidYMid meet" height="1813" width="2000"
            xmlns="http://www.w3.org/2000/svg" xmlns:xlink="http://www.w3.org/1999/xlink">
            <g id="tight-bounds" transform="matrix(1,0,0,1,0.2400000000000091,55.900000000000006)">
                <svg viewBox="0 0 395.52 247.2" height="247.2" width="395.52">
                    <g>
                        <svg></svg>
                    </g>
                    <g>
                        <svg viewBox="0 0 395.52 247.2" height="247.2" width="395.52">
                            <g transform="matrix(1,0,0,1,124.16267154490404,47.215199999999996)">
                                <svg viewBox="0 0 147.1946569101919 152.7696" height="152.7696"
                                    width="147.1946569101919">
                                    <g>
                                        <svg viewBox="0 0 147.1946569101919 152.7696"
                                            height="152.7696" width="147.1946569101919">
                                            <g>
                                                <svg viewBox="0 0 147.1946569101919 152.7696"
                                                    height="152.7696" width="147.1946569101919">
                                                    <g id="textblocktransform">
                                                        <svg
                                                            viewBox="0 0 147.1946569101919 152.7696"
                                                            height="152.7696"
                                                            width="147.1946569101919" id="textblock">
                                                            <g>
                                                                <svg
                                                                    viewBox="0 0 147.1946569101919 152.7696"
                                                                    height="152.7696"
                                                                    width="147.1946569101919">
                                                                    <path
                                                                        d="M146.85 32.766C146.158 16.909 144.186 12.5 144.186 12.5 138.131-3.833 130.574-0.312 123.786 2.034 111.801 2.13 99.864 5.618 87.906 7.489 62.807 7.775 37.494 3.081 12.52 14.657 10.174 18.209-2.434 15.355 0.417 34.796 1.165 42.883 3.891 51.859 3.808 59.28 4.182 60.58 4.701 57.599 4.922 59.47 5.697 64.513 6.964 62.134 8.002 65.115 6.555 73.076 7.593 79.704 8.583 86.65 6.839 88.457 4.604 87.601 3.6 93.595 3.497 97.94 2.936 97.116 2.32 96.925 1.87 96.798 0.964 97.274 1.116 98.638 1.635 103.3-0.593 105.996 0.805 110.563-0.157 115.51 1.469 119.792 1.248 125.152 1.22 126.23 1.372 127.15 1.614 127.403 2.687 128.767 1.123 131.431 1.289 134.317 12.292 154.044 24.229 140.406 35.501 149.477 38.428 143.134 36.228 151.729 37.397 150.397 38.311 148.843 38.975 155.281 40.006 151.633 40.165 150.587 39.923 148.113 40.491 148.589 40.788 148.843 41.051 148.779 41.093 147.32 41.155 145.132 40.608 146.496 40.463 145.354 42.034 139.582 41.646 153.314 43.12 152.743 43.051 151.063 42.622 148.652 43.501 148.969 44.373 146.559 44.4 144.561 45.175 149.984 45.203 151.158 45.341 151.982 45.563 152.553 47.985 146.654 50.393 154.646 52.933 151.982 54.49 149.065 55.984 153.568 57.562 152.458 58.116 151.57 58.676 149.984 59.209 152.648 65.735 153.219 72.689 150.841 78.876 152.743 95.407 149.191 113.074 154.202 130.505 149.509 134.616 147.701 138.885 145.132 142.892 143.07 142.892 143.07 146.137 137.425 146.137 112.053S146.829 89.853 146.933 69.651C147.037 49.448 147.521 48.624 146.829 32.766Z"
                                                                        opacity="1" fill="#1e55b3"
                                                                        data-fill-palette-color="tertiary"></path>
                                                                    <g
                                                                        transform="matrix(1,0,0,1,34.46482176000001,16.210552)">
                                                                        <svg
                                                                            width="78.26501339019188"
                                                                            viewBox="2 -22.7 15.25 23.45"
                                                                            height="120.348496"
                                                                            data-palette-color="#ffffff">
                                                                            <path
                                                                                d="M2-0.45L2-0.45 3.35-4.8Q6.9-2.3 9.3-2.3 11.7-2.3 13.35-3.45L13.35-3.45Q13.45-3.75 13.45-4.98 13.45-6.2 12.53-7.08 11.6-7.95 8.3-9.65 5-11.35 3.83-12.78 2.65-14.2 2.65-16.2L2.65-16.2Q2.65-19 5.13-20.85 7.6-22.7 10.93-22.7 14.25-22.7 16.55-21.7L16.55-21.7 15.35-17.8Q12.2-19.65 10.08-19.65 7.95-19.65 6.25-18.65L6.25-18.65Q6.25-16.9 7.18-15.85 8.1-14.8 11.25-13.18 14.4-11.55 15.83-10 17.25-8.45 17.25-6.45L17.25-6.45Q17.25-3.4 14.63-1.33 12 0.75 8.47 0.75 4.95 0.75 2-0.45Z"
                                                                                opacity="1"
                                                                                transform="matrix(1,0,0,1,0,0)"
                                                                                fill="#ffffff"
                                                                                class="wordmark-text-0"
                                                                                data-fill-palette-color="quaternary"
                                                                                id="text-0"></path>
                                                                        </svg>
                                                                    </g>
                                                                </svg>
                                                            </g>
                                                        </svg>
                                                    </g>
                                                </svg>
                                            </g>
                                            <g></g>
                                        </svg>
                                    </g>
                                </svg>
                            </g>
                            <g>
                                <path
                                    d="M123.157 18.804A73.597 73.597 0 0 1 272.363 18.804L261.51 18.804A62.744 62.744 0 0 0 134.01 18.804L123.157 18.804M123.157 228.396A73.597 73.597 0 0 0 272.363 228.396L261.51 228.396A62.744 62.744 0 0 1 134.01 228.396L123.157 228.396"
                                    fill="#1e55b3" stroke="transparent"
                                    data-fill-palette-color="tertiary"></path>
                            </g>
                        </svg>
                    </g>
                    <defs></defs>
                </svg>
                <rect width="395.52" height="247.2" fill="none" stroke="none" visibility="hidden"></rect>
            </g>
        </svg>
    </g>
</svg>