<svg xmlns="http://www.w3.org/2000/svg" version="1.1" xmlns:xlink="http://www.w3.org/1999/xlink" xmlns:svgjs="http://svgjs.dev/svgjs" width="2000" height="1500" viewBox="0 0 2000 1500"><rect width="2000" height="1500" fill="#faecdc"></rect><g transform="matrix(0.4444444444444444,0,0,0.4444444444444444,555.5555555555557,250)"><svg viewBox="0 0 320 360" data-background-color="#faecdc" preserveAspectRatio="xMidYMid meet" height="2250" width="2000" xmlns="http://www.w3.org/2000/svg" xmlns:xlink="http://www.w3.org/1999/xlink"><g id="tight-bounds" transform="matrix(1,0,0,1,0,0)"><svg viewBox="0 0 320 360" height="360" width="320"><g><svg></svg></g><g><svg viewBox="0 0 320 360" height="360" width="320"><g><path d="M20.961 227.22l3.726 4.658-1.863-6.056c-0.466-2.795-3.726 0.466-1.863 1.398M25.153 224.425c1.397 2.329 2.795 4.658 2.795 6.987 0 3.261 2.795 4.658 5.123 5.589-3.261-3.726-5.124-13.974-7.918-12.576M204.017 26.929c7.918 0 15.371-0.932 23.756 0.931 20.495 5.124 37.729 15.371 49.374 29.811l32.606 52.169c1.397 13.042 4.192 27.482 3.726 43.319 3.261 0 2.795-4.658 6.521-5.59-3.726 9.316-5.59 20.961-6.521 34.469-2.329-7.453 0-18.632 0.466-24.687-3.261 5.124-5.124 1.397-5.124-0.932 0.466-3.726-1.397-3.261-2.795-4.658-5.124-4.658-8.384-9.782-12.11-17.7 2.329-6.055 2.795-14.905-4.658-19.563-2.329-1.397-5.124-3.726-6.521-7.453-1.863-5.124-5.124-11.179-4.193-19.097 0.466-2.329-6.987 5.124-11.179 1.863-18.166-12.576-36.332-27.016-58.224-39.127-11.645 0-20.029-4.192-24.221-9.316-3.726-4.658-0.932-10.713 4.658-11.179 3.261 0 6.987-0.932 9.782 0.932 0.466-1.863 2.329-4.192 4.657-4.192M157.904 16.215l0.932 0.466c4.658 0.932 6.987 7.453 12.11 5.124 0 3.261 0.466 6.521-0.466 8.85-1.397 3.726-5.59 3.726-8.85 3.726-31.208-1.863-49.374 11.179-68.471 22.358-5.124 3.261-10.713 5.59-14.906 9.782-20.029 18.632-41.921 35.866-47.045 70.335l-4.192 38.195c-0.466 4.192-5.124 8.384-4.192 13.508l3.26 22.824c-3.261-3.261-5.124 0.932-4.192 2.795 0.466 1.397 2.329 6.055 5.124 1.863 3.726 6.987 7.453 20.495 12.576 26.55 15.837 18.632 36.332 35.4 53.101 52.169 4.192-0.932 7.453-0.932 8.384-3.727 1.397 2.795-1.397 5.59-3.726 6.056 7.453 4.658 15.837 8.85 27.016 9.781 14.44 0.932 27.948 3.261 40.524 6.522 6.521-1.863 13.042-2.795 20.029-3.261 2.329 0 3.726-3.726 6.521-4.658l0.466-4.658c2.795 4.192 2.329-1.397 0.466-4.192 3.261 2.795 4.192 5.124 5.589 6.987 0-1.397 3.726-6.521 3.727-0.466l0.931-6.055c1.397-0.932 1.863 5.124 3.261 0.931 1.397-4.192 4.192-0.932 6.987-2.329-0.932 1.863-0.466 5.59 2.794 3.261l3.727-3.261c2.329 5.59 6.055 3.261 7.918 2.329 20.495-13.042 40.99-28.413 60.553-43.784l-0.466 6.055 2.329-7.453c2.329 2.329 4.192 0.466 5.124-0.931 2.795-4.658 6.521-9.316 12.577-13.508-7.453 20.029-16.303 35.866-27.482 48.908l-4.658 5.59c0 3.261-0.932 7.453-4.658 7.918-1.863 0.466-5.59-0.932-8.384 1.863-1.397 1.863 3.261 5.59-0.466 2.795-3.261-2.329-6.521 0-10.248 0.932-2.795 0.932 1.863 3.726 2.795 5.589 0.932 1.863 1.863 3.726 1.398 6.056l-5.124-5.59c-6.055 3.261-9.782 9.316-14.906 13.974-2.329 1.863-1.397 5.124-1.397 7.918-3.261 0-6.987-0.932-8.85 0.932-1.397 1.863-0.932 4.658-0.932 7.453-4.658-0.466-5.124-7.453-9.315-6.056-4.192 0.932-8.85 1.397-12.577 3.727 2.795 5.59-4.658 2.329-3.726 3.26-6.987-4.192-13.042-7.453-20.495-4.658-15.837-5.124-35.4-2.795-49.84-0.931 0-2.329 0.466-4.658-0.466-5.124-0.932 2.329-3.726 1.397-3.26 1.397-8.85-6.055-17.7-9.782-27.016-14.905-8.384 0.932-16.303-3.261-18.632-5.59-6.521-6.055-13.974-2.795-20.029-4.192-13.042-3.261-17.7-16.769-19.098-26.084-0.932-4.658-4.658-6.521-6.055-6.056-6.055-19.563-15.371-37.263-22.824-55.429-1.863-4.658-1.397-9.316-1.397-14.44 2.329 0.932 4.658 0.466 4.192-2.794-2.329-15.371-7.918-27.016-13.974-38.195 3.261-15.837 3.726-34.469 11.179-48.443 6.521-12.576 18.632-19.098 27.016-29.811 2.795-3.726 2.795-8.85 5.59-12.11 9.316-9.316 18.632-19.098 28.879-27.482 4.658-3.726 10.247 0 17.234-1.397 2.329-8.384 11.645-15.837 20.495-13.508 3.726 0.932 11.179-8.85 13.508-9.782 3.726-1.397 1.863 3.726 1.863 6.987 8.85-6.987 20.961-10.713 32.14-14.906" fill="#e13f2a" fill-rule="nonzero" stroke="none" stroke-width="1" stroke-linecap="butt" stroke-linejoin="miter" stroke-miterlimit="10" stroke-dasharray="" stroke-dashoffset="0" font-family="none" font-weight="none" font-size="none" text-anchor="none" style="mix-blend-mode: normal" data-fill-palette-color="tertiary"></path></g><g transform="matrix(1,0,0,1,64,158.62414578587698)"><svg viewBox="0 0 192 42.75170842824602" height="42.75170842824602" width="192"><g><svg viewBox="0 0 192 42.75170842824602" height="42.75170842824602" width="192"><g><svg viewBox="0 0 192 42.75170842824602" height="42.75170842824602" width="192"><g><svg viewBox="0 0 192 42.75170842824602" height="42.75170842824602" width="192"><g id="textblocktransform"><svg viewBox="0 0 192 42.75170842824602" height="42.75170842824602" width="192" id="textblock"><g><svg viewBox="0 0 192 42.75170842824602" height="42.75170842824602" width="192"><g transform="matrix(1,0,0,1,0,0)"><svg width="192" viewBox="3.96 -37.94 171.47 38.18" height="42.75170842824602" data-palette-color="#e13f2a"><path d="M24.85-9.86L24.85-9.86Q24.85-7.91 24.05-6.08 23.24-4.25 21.78-2.86 20.31-1.46 18.16-0.63 16.02 0.2 13.28 0.2L13.28 0.2Q12.11 0.2 10.86 0.07 9.62-0.05 8.35-0.34 7.08-0.63 5.93-1.15 4.79-1.66 3.96-2.39L3.96-2.39 4.98-6.59Q5.66-6.2 6.71-5.83 7.76-5.47 8.89-5.15 10.01-4.83 11.13-4.64 12.26-4.44 13.23-4.44L13.23-4.44Q16.21-4.44 17.8-5.83 19.38-7.23 19.38-9.96L19.38-9.96Q19.38-11.62 18.26-12.79 17.14-13.96 15.45-14.92 13.77-15.87 11.82-16.82 9.86-17.77 8.15-19.07 6.45-20.36 5.32-22.12 4.2-23.88 4.2-26.51L4.2-26.51Q4.2-28.91 5.08-30.76 5.96-32.62 7.45-33.91 8.94-35.21 10.91-35.89 12.89-36.57 15.09-36.57L15.09-36.57Q17.33-36.57 19.63-36.16 21.92-35.74 23.34-34.81L23.34-34.81Q23.05-34.18 22.66-33.42 22.27-32.67 21.92-32.01 21.58-31.35 21.34-30.91 21.09-30.47 21.04-30.42L21.04-30.42Q20.75-30.57 20.39-30.81 20.02-31.05 19.34-31.3 18.65-31.54 17.53-31.64 16.41-31.74 14.65-31.59L14.65-31.59Q13.67-31.49 12.79-31.03 11.91-30.57 11.23-29.88 10.55-29.2 10.16-28.34 9.77-27.49 9.77-26.71L9.77-26.71Q9.77-24.76 10.89-23.56 12.01-22.36 13.67-21.46 15.33-20.56 17.29-19.7 19.24-18.85 20.92-17.63 22.61-16.41 23.73-14.58 24.85-12.74 24.85-9.86ZM53.46-0.98L53.46 0 47.51 0 47.51-14.99Q47.51-16.65 47.36-18.16 47.21-19.68 46.68-20.85 46.14-22.02 45.21-22.68 44.28-23.34 42.62-23.34L42.62-23.34Q42.09-23.34 41.23-23.19 40.38-23.05 39.48-22.75 38.57-22.46 37.77-22.02 36.96-21.58 36.57-21L36.57-21 36.57-20.7 36.57-20.61 36.57-9.77 36.57-9.67 36.57 0 30.66 0 30.66-37.94 36.57-37.94 36.57-24.76Q37.16-25.29 38.06-25.85 38.96-26.42 40.04-26.86 41.11-27.29 42.23-27.56 43.36-27.83 44.43-27.83L44.43-27.83Q46.63-27.83 48.14-26.9 49.66-25.98 51.17-24.51L51.17-24.51Q52-23.68 52.46-22.58 52.93-21.48 53.15-20.29 53.37-19.09 53.42-17.87 53.46-16.65 53.46-15.48L53.46-15.48 53.46-0.98ZM80.37-14.89L80.37-8.54 80.37-8.15Q80.37-7.76 80.41-7.01 80.46-6.25 80.61-5.47 80.76-4.69 81.07-4.05 81.39-3.42 81.93-3.22L81.93-3.22 80.37 0.05Q79.73 0.05 79.02-0.24 78.32-0.54 77.66-1.07 77-1.61 76.53-2.27 76.07-2.93 75.83-3.71L75.83-3.71Q75.48-2.88 74.63-2.17 73.77-1.46 72.7-0.9 71.63-0.34 70.38-0.05 69.14 0.24 68.06 0.24L68.06 0.24Q66.4 0.24 64.86-0.2 63.33-0.63 62.15-1.61 60.98-2.59 60.32-4.2 59.66-5.81 59.66-8.15L59.66-8.15Q59.66-10.4 60.62-12.04 61.57-13.67 63.06-14.72 64.55-15.77 66.45-16.28 68.35-16.8 70.31-16.8L70.31-16.8 74.46-16.8Q74.46-19.19 74.21-20.61 73.97-22.02 73.38-22.68 72.8-23.34 71.94-23.51 71.09-23.68 69.92-23.68L69.92-23.68Q68.84-23.68 67.89-23.41 66.94-23.14 66.13-22.78 65.33-22.41 64.72-21.97 64.11-21.53 63.81-21.29L63.81-21.29 61.62-24.66Q62.1-25.2 63.08-25.76 64.06-26.32 65.33-26.76 66.6-27.2 68.09-27.47 69.58-27.73 71.19-27.73L71.19-27.73Q72.65-27.73 74.04-27.44 75.43-27.15 76.58-26.46 77.73-25.78 78.58-24.63 79.44-23.49 79.78-21.78L79.78-21.78Q80.12-20.07 80.24-18.33 80.37-16.6 80.37-14.89L80.37-14.89ZM74.51-6.59L74.51-13.33 71.38-13.33Q70.41-13.33 69.33-13.13 68.26-12.94 67.33-12.4 66.4-11.87 65.79-10.86 65.18-9.86 65.18-8.3L65.18-8.3Q65.18-5.86 66.28-4.79 67.38-3.71 69.48-3.71L69.48-3.71Q70.94-3.71 72.29-4.49 73.63-5.27 74.51-6.59L74.51-6.59ZM114.01-19.19L114.01-19.19Q114.59-16.94 114.59-14.26L114.59-14.26Q114.59-11.47 113.93-8.84 113.27-6.2 111.93-4.17 110.59-2.15 108.56-0.95 106.54 0.24 103.8 0.24L103.8 0.24Q102.34 0.24 100.97-0.05 99.6-0.34 98.5-0.85 97.4-1.37 96.7-1.98 95.99-2.59 95.84-3.27L95.84-3.27Q95.79-2.59 95.7-1.71 95.6-0.83 95.55 0L95.55 0 89.93 0 89.93-37.94 95.84-37.94 95.84-24.76Q96.82-26.12 98.8-26.95 100.77-27.78 103.17-27.78L103.17-27.78Q104.78-27.78 106.44-27.34 108.1-26.9 109.54-25.88 110.98-24.85 112.18-23.19 113.37-21.53 114.01-19.19ZM101.8-4.39L101.8-4.39Q103.26-4.39 104.46-5.13 105.66-5.86 106.51-7.1 107.37-8.35 107.88-10.06 108.39-11.77 108.39-13.72L108.39-13.72Q108.39-15.63 107.93-17.33 107.46-19.04 106.66-20.36 105.85-21.68 104.68-22.46 103.51-23.24 102.04-23.24L102.04-23.24Q100.58-23.24 99.36-22.51 98.14-21.78 97.28-20.53 96.43-19.29 95.96-17.6 95.5-15.92 95.5-13.96L95.5-13.96Q95.5-12.01 95.92-10.28 96.33-8.54 97.16-7.25 97.99-5.96 99.14-5.18 100.29-4.39 101.8-4.39ZM141.2-14.89L141.2-8.54 141.2-8.15Q141.2-7.76 141.25-7.01 141.3-6.25 141.45-5.47 141.59-4.69 141.91-4.05 142.23-3.42 142.76-3.22L142.76-3.22 141.2 0.05Q140.57 0.05 139.86-0.24 139.15-0.54 138.49-1.07 137.83-1.61 137.37-2.27 136.9-2.93 136.66-3.71L136.66-3.71Q136.32-2.88 135.46-2.17 134.61-1.46 133.53-0.9 132.46-0.34 131.22-0.05 129.97 0.24 128.9 0.24L128.9 0.24Q127.24 0.24 125.7-0.2 124.16-0.63 122.99-1.61 121.82-2.59 121.16-4.2 120.5-5.81 120.5-8.15L120.5-8.15Q120.5-10.4 121.45-12.04 122.4-13.67 123.89-14.72 125.38-15.77 127.28-16.28 129.19-16.8 131.14-16.8L131.14-16.8 135.29-16.8Q135.29-19.19 135.05-20.61 134.8-22.02 134.22-22.68 133.63-23.34 132.78-23.51 131.92-23.68 130.75-23.68L130.75-23.68Q129.68-23.68 128.73-23.41 127.77-23.14 126.97-22.78 126.16-22.41 125.55-21.97 124.94-21.53 124.65-21.29L124.65-21.29 122.45-24.66Q122.94-25.2 123.92-25.76 124.89-26.32 126.16-26.76 127.43-27.2 128.92-27.47 130.41-27.73 132.02-27.73L132.02-27.73Q133.49-27.73 134.88-27.44 136.27-27.15 137.42-26.46 138.56-25.78 139.42-24.63 140.27-23.49 140.62-21.78L140.62-21.78Q140.96-20.07 141.08-18.33 141.2-16.6 141.2-14.89L141.2-14.89ZM135.34-6.59L135.34-13.33 132.22-13.33Q131.24-13.33 130.17-13.13 129.09-12.94 128.16-12.4 127.24-11.87 126.63-10.86 126.02-9.86 126.02-8.3L126.02-8.3Q126.02-5.86 127.11-4.79 128.21-3.71 130.31-3.71L130.31-3.71Q131.78-3.71 133.12-4.49 134.46-5.27 135.34-6.59L135.34-6.59ZM174.84-19.19L174.84-19.19Q175.43-16.94 175.43-14.26L175.43-14.26Q175.43-11.47 174.77-8.84 174.11-6.2 172.77-4.17 171.42-2.15 169.4-0.95 167.37 0.24 164.64 0.24L164.64 0.24Q163.17 0.24 161.8-0.05 160.44-0.34 159.34-0.85 158.24-1.37 157.53-1.98 156.82-2.59 156.68-3.27L156.68-3.27Q156.63-2.59 156.53-1.71 156.43-0.83 156.38 0L156.38 0 150.77 0 150.77-37.94 156.68-37.94 156.68-24.76Q157.65-26.12 159.63-26.95 161.61-27.78 164-27.78L164-27.78Q165.61-27.78 167.27-27.34 168.93-26.9 170.37-25.88 171.81-24.85 173.01-23.19 174.21-21.53 174.84-19.19ZM162.63-4.39L162.63-4.39Q164.1-4.39 165.3-5.13 166.49-5.86 167.35-7.1 168.2-8.35 168.71-10.06 169.23-11.77 169.23-13.72L169.23-13.72Q169.23-15.63 168.76-17.33 168.3-19.04 167.49-20.36 166.69-21.68 165.51-22.46 164.34-23.24 162.88-23.24L162.88-23.24Q161.41-23.24 160.19-22.51 158.97-21.78 158.12-20.53 157.26-19.29 156.8-17.6 156.34-15.92 156.34-13.96L156.34-13.96Q156.34-12.01 156.75-10.28 157.17-8.54 158-7.25 158.83-5.96 159.97-5.18 161.12-4.39 162.63-4.39Z" opacity="1" transform="matrix(1,0,0,1,0,0)" fill="#e13f2a" class="wordmark-text-0" data-fill-palette-color="primary" id="text-0"></path></svg></g></svg></g></svg></g></svg></g><g></g></svg></g></svg></g></svg></g></svg></g><defs></defs></svg><rect width="320" height="360" fill="none" stroke="none" visibility="hidden"></rect></g></svg></g></svg>